<svg xmlns="http://www.w3.org/2000/svg" width="64" height="64" xml:space="preserve"><path style="stroke:#000;stroke-width:0;stroke-dasharray:none;stroke-linecap:butt;stroke-dashoffset:0;stroke-linejoin:miter;stroke-miterlimit:4;fill:#aaa;fill-rule:nonzero;opacity:1" vector-effect="non-scaling-stroke" transform="translate(16 40)" d="M0 0h32v10H0z"/><path style="stroke:#000;stroke-width:0;stroke-dasharray:none;stroke-linecap:butt;stroke-dashoffset:0;stroke-linejoin:miter;stroke-miterlimit:4;fill:#aaa;fill-rule:nonzero;opacity:1" vector-effect="non-scaling-stroke" transform="matrix(.5 0 0 .59 32 51.73)" d="M18-2.983S14.715-.455 9.48 1.31C2.652 3.61-7.495 4.615-18-2.983"/><path style="stroke:#000;stroke-width:0;stroke-dasharray:none;stroke-linecap:butt;stroke-dashoffset:0;stroke-linejoin:miter;stroke-miterlimit:4;fill:#aaa;fill-rule:nonzero;opacity:1" vector-effect="non-scaling-stroke" transform="translate(32 21)" d="m-16 19 4-38h24l4 38"/><path style="stroke:#000;stroke-width:0;stroke-dasharray:none;stroke-linecap:butt;stroke-dashoffset:0;stroke-linejoin:miter;stroke-miterlimit:4;fill:#b57214;fill-rule:nonzero;opacity:1" vector-effect="non-scaling-stroke" transform="matrix(1.19 0 0 1.19 6.48 38.48)" d="M8 0c4.416 0 8 3.584 8 8s-3.584 8-8 8-8-3.584-8-8 3.584-8 8-8z"/><path style="stroke:#000;stroke-width:0;stroke-dasharray:none;stroke-linecap:butt;stroke-dashoffset:0;stroke-linejoin:miter;stroke-miterlimit:4;fill:#b57214;fill-rule:nonzero;opacity:1" vector-effect="non-scaling-stroke" transform="matrix(1.18 0 0 1.18 38.56 38.56)" d="M8 0c4.416 0 8 3.584 8 8s-3.584 8-8 8-8-3.584-8-8 3.584-8 8-8z"/><path style="stroke:#000;stroke-width:0;stroke-dasharray:none;stroke-linecap:butt;stroke-dashoffset:0;stroke-linejoin:miter;stroke-miterlimit:4;fill:#814c02;fill-rule:nonzero;opacity:1" vector-effect="non-scaling-stroke" transform="matrix(1.19 0 0 1.19 11.24 43.24)" d="M4 0c2.208 0 4 1.792 4 4S6.208 8 4 8 0 6.208 0 4s1.792-4 4-4z"/><path style="stroke:#000;stroke-width:0;stroke-dasharray:none;stroke-linecap:butt;stroke-dashoffset:0;stroke-linejoin:miter;stroke-miterlimit:4;fill:#814c02;fill-rule:nonzero;opacity:1" vector-effect="non-scaling-stroke" transform="matrix(1.18 0 0 1.18 43.28 43.28)" d="M4 0c2.208 0 4 1.792 4 4S6.208 8 4 8 0 6.208 0 4s1.792-4 4-4z"/><path style="stroke:#000;stroke-width:0;stroke-dasharray:none;stroke-linecap:butt;stroke-dashoffset:0;stroke-linejoin:miter;stroke-miterlimit:4;fill:gray;fill-rule:nonzero;opacity:1" vector-effect="non-scaling-stroke" transform="translate(15.5 28)" d="M0 0h33v4H0z"/><path style="stroke:#000;stroke-width:0;stroke-dasharray:none;stroke-linecap:butt;stroke-dashoffset:0;stroke-linejoin:miter;stroke-miterlimit:4;fill:gray;fill-rule:nonzero;opacity:1" vector-effect="non-scaling-stroke" transform="translate(18 12.5)" d="M0 0h28v4H0z"/></svg>